<?xml version="1.0" encoding="utf-8"?>
<!-- Generator: Adobe Illustrator 23.0.3, SVG Export Plug-In . SVG Version: 6.00 Build 0)  -->
<svg version="1.1" id="Layer_1" xmlns="http://www.w3.org/2000/svg" xmlns:xlink="http://www.w3.org/1999/xlink" x="0px" y="0px"
	 viewBox="0 0 222.6 33.7" style="enable-background:new 0 0 222.6 33.7;" xml:space="preserve">
<style type="text/css">
	.st0{fill:#B6C649;}
</style>
<path class="st0" d="M8.1,0h17.8c0.2,0,0.4,0.1,0.6,0.2s0.3,0.3,0.4,0.4C27,0.8,27,1,27,1.2s-0.1,0.4-0.2,0.5l-8.9,10.9
	c-0.1,0.1-0.2,0.2-0.4,0.3C17.3,13,17.2,13,17,13s-0.3,0-0.5-0.1c-0.1-0.1-0.3-0.2-0.4-0.3L7.2,1.7C7.1,1.6,7,1.4,7,1.2
	s0-0.4,0.1-0.6c0.1-0.2,0.2-0.3,0.4-0.4S7.9,0,8.1,0z"/>
<path class="st0" d="M17.8,20.4l8.9,10.9c0.1,0.2,0.2,0.3,0.2,0.5s0,0.4-0.1,0.6c-0.1,0.2-0.2,0.3-0.4,0.4C26.2,32.9,26,33,25.8,33
	H8.1c-0.2,0-0.4-0.1-0.6-0.2c-0.2-0.1-0.3-0.3-0.4-0.4C7,32.2,7,32,7,31.8s0.1-0.4,0.2-0.5l8.9-10.9c0.1-0.1,0.2-0.2,0.4-0.3
	C16.7,20,16.8,20,17,20s0.3,0,0.5,0.1C17.6,20.2,17.7,20.3,17.8,20.4z"/>
<path class="st0" d="M31.2,31.6l-11-13.9C20.1,17.5,20,17.3,20,17s0.1-0.5,0.2-0.7L31.1,2.4c0.1-0.2,0.3-0.3,0.5-0.4
	c0.2-0.1,0.4-0.1,0.6,0c0.2,0.1,0.4,0.2,0.5,0.4s0.2,0.4,0.2,0.6v0.1c0,0.3-0.1,0.5-0.2,0.7l-9.9,12.4c-0.2,0.2-0.2,0.4-0.2,0.7
	c0,0.3,0.1,0.5,0.2,0.7l1.3,1.8c0.1,0.1,0.2,0.2,0.4,0.3c0.1,0.1,0.3,0.1,0.4,0.1c0.2,0,0.3,0,0.4-0.1c0.1-0.1,0.3-0.2,0.4-0.3
	l5.3-7.1c0.1-0.2,0.3-0.3,0.5-0.4s0.4-0.1,0.6,0c0.2,0.1,0.4,0.2,0.5,0.4c0.1,0.2,0.2,0.4,0.2,0.6c0,0.3-0.1,0.5-0.2,0.7l-5.8,7.5
	c-0.2,0.2-0.2,0.4-0.2,0.7c0,0.3,0.1,0.5,0.2,0.7l5.9,7.5c0.2,0.2,0.2,0.4,0.2,0.7v0.1c0,0.2-0.1,0.4-0.2,0.6
	c-0.1,0.2-0.3,0.3-0.5,0.4c-0.2,0.1-0.4,0.1-0.6,0S31.3,31.8,31.2,31.6z"/>
<path class="st0" d="M0,3.1v27.8c0,0.2,0.1,0.4,0.2,0.6c0.1,0.2,0.3,0.3,0.5,0.4C1,32,1.2,32,1.4,32s0.4-0.2,0.6-0.4l11.8-13.9
	c0.2-0.2,0.3-0.4,0.3-0.7c0-0.3-0.1-0.5-0.3-0.7L2,2.4C1.9,2.2,1.7,2.1,1.4,2C1.2,1.9,0.9,2,0.7,2C0.5,2.1,0.3,2.2,0.2,2.4
	C0.1,2.7,0,2.9,0,3.1z M4.8,9.2l6,7.1c0.2,0.2,0.3,0.4,0.3,0.7s-0.1,0.5-0.3,0.7l-6,7.1c-0.1,0.2-0.3,0.3-0.6,0.4
	c-0.2,0.1-0.5,0-0.7,0C3.3,25.1,3.1,25,3,24.8s-0.2-0.4-0.2-0.6V9.9c0-0.2,0.1-0.4,0.2-0.6C3.1,9.1,3.3,9,3.5,8.9s0.5-0.1,0.7,0
	C4.5,8.9,4.7,9,4.8,9.2z"/>
<path class="st0" d="M52,3.1v27.8c0,0.2,0.1,0.4,0.2,0.6c0.1,0.2,0.3,0.3,0.5,0.4c0.2,0.1,0.5,0.1,0.7,0s0.4-0.2,0.6-0.4l11.8-13.9
	c0.2-0.2,0.3-0.4,0.3-0.7c0-0.3-0.1-0.5-0.3-0.7L54,2.4c-0.1-0.2-0.3-0.3-0.6-0.4c-0.2-0.1-0.5,0-0.7,0c-0.2,0.1-0.4,0.2-0.5,0.4
	C52.1,2.7,52,2.9,52,3.1z M56.8,9.2l6,7.1c0.2,0.2,0.3,0.4,0.3,0.7s-0.1,0.5-0.3,0.7l-6,7.1c-0.1,0.2-0.3,0.3-0.6,0.4
	c-0.2,0.1-0.5,0-0.7,0c-0.2-0.1-0.4-0.2-0.5-0.4s-0.2-0.4-0.2-0.6V9.9c0-0.2,0.1-0.4,0.2-0.6c0.1-0.2,0.3-0.3,0.5-0.4s0.5-0.1,0.7,0
	C56.5,8.9,56.7,9,56.8,9.2z"/>
<path class="st0" d="M149,31.6l-11.8-13.9c-0.2-0.2-0.3-0.4-0.3-0.7s0.1-0.5,0.3-0.7L149,2.4c0.1-0.2,0.3-0.3,0.6-0.4
	c0.2-0.1,0.5-0.1,0.7,0s0.4,0.2,0.5,0.4S151,2.8,151,3v0.1c0,0.3-0.1,0.5-0.3,0.7l-10.6,12.4c-0.2,0.2-0.3,0.4-0.3,0.7
	c0,0.3,0.1,0.5,0.2,0.7l1.4,1.8c0.1,0.1,0.2,0.2,0.4,0.3c0.2,0.1,0.3,0.1,0.5,0.1s0.3,0,0.5-0.1s0.3-0.2,0.4-0.3l5.7-7.1
	c0.1-0.2,0.3-0.3,0.6-0.4s0.5-0.1,0.7,0s0.4,0.2,0.5,0.4c0.1,0.2,0.2,0.4,0.2,0.6c0,0.3-0.1,0.5-0.3,0.7l-6.3,7.5
	c-0.2,0.2-0.3,0.4-0.3,0.7c0,0.3,0.1,0.5,0.3,0.7l6.3,7.5c0.2,0.2,0.3,0.4,0.3,0.7v0.1c0,0.2-0.1,0.4-0.2,0.6
	c-0.1,0.2-0.3,0.3-0.5,0.4c-0.2,0.1-0.5,0.1-0.7,0S149.2,31.8,149,31.6z"/>
<path class="st0" d="M74.9,28.1c-1.2,0-2.3-0.3-3.3-0.9c-1-0.6-1.8-1.4-2.3-2.4c-0.6-1-0.8-2.1-0.8-3.4s0.3-2.4,0.9-3.4
	s1.4-1.8,2.4-2.4s2.1-0.9,3.4-0.9s2.4,0.3,3.4,0.9S80.4,17,81,18s0.9,2.2,0.9,3.4L81.1,22c0,1.2-0.3,2.2-0.8,3.1
	c-0.5,0.9-1.3,1.6-2.2,2.2C77.2,27.9,76.1,28.1,74.9,28.1z M75.1,26.4c0.9,0,1.8-0.2,2.5-0.6c0.7-0.4,1.3-1,1.7-1.8
	c0.4-0.8,0.6-1.6,0.6-2.6s-0.2-1.8-0.6-2.6c-0.4-0.8-1-1.3-1.7-1.8c-0.7-0.4-1.5-0.7-2.5-0.7c-0.9,0-1.7,0.2-2.5,0.7
	c-0.7,0.4-1.3,1-1.8,1.8c-0.4,0.8-0.6,1.6-0.6,2.6c0,0.9,0.2,1.8,0.6,2.6c0.4,0.8,1,1.3,1.8,1.8S74.2,26.4,75.1,26.4z M80.9,28
	c-0.3,0-0.5-0.1-0.7-0.2c-0.2-0.2-0.3-0.4-0.3-0.7V23l0.5-1.9l1.4,0.4v5.6c0,0.3-0.1,0.5-0.3,0.7C81.4,27.9,81.1,28,80.9,28z
	 M96.7,28c-0.3,0-0.5-0.1-0.7-0.3s-0.3-0.4-0.3-0.6v-6.2c0-1-0.2-1.8-0.6-2.4s-0.9-1.1-1.5-1.4s-1.4-0.5-2.2-0.5
	c-0.8,0-1.5,0.2-2.1,0.5s-1.1,0.7-1.5,1.2s-0.6,1.1-0.6,1.8h-1.3c0-1,0.3-1.9,0.8-2.7c0.5-0.8,1.2-1.4,2-1.9s1.8-0.7,2.8-0.7
	c1.1,0,2.2,0.2,3,0.7c0.9,0.5,1.6,1.2,2.1,2.1s0.8,2,0.8,3.3v6.2c0,0.3-0.1,0.5-0.3,0.6S96.9,28,96.7,28z M86.3,28
	c-0.3,0-0.5-0.1-0.7-0.2c-0.2-0.2-0.2-0.4-0.2-0.7V15.8c0-0.3,0.1-0.5,0.2-0.7c0.2-0.2,0.4-0.3,0.7-0.3c0.3,0,0.5,0.1,0.6,0.3
	c0.2,0.2,0.3,0.4,0.3,0.7v11.3c0,0.3-0.1,0.5-0.3,0.7C86.8,27.9,86.6,28,86.3,28z M112.9,28c-0.3,0-0.5-0.1-0.7-0.3
	s-0.3-0.4-0.3-0.6v-6.2c0-1-0.2-1.8-0.6-2.4s-0.9-1.1-1.5-1.4s-1.4-0.5-2.2-0.5c-0.8,0-1.5,0.2-2.1,0.5s-1.1,0.7-1.5,1.2
	s-0.6,1.1-0.6,1.8h-1.3c0-1,0.3-1.9,0.8-2.7c0.5-0.8,1.2-1.4,2-1.9s1.8-0.7,2.8-0.7c1.1,0,2.2,0.2,3,0.7c0.9,0.5,1.6,1.2,2.1,2.1
	s0.8,2,0.8,3.3v6.2c0,0.3-0.1,0.5-0.3,0.6C113.4,27.9,113.2,28,112.9,28z M102.6,28c-0.3,0-0.5-0.1-0.7-0.2
	c-0.2-0.2-0.2-0.4-0.2-0.7V15.8c0-0.3,0.1-0.5,0.2-0.7c0.2-0.2,0.4-0.3,0.7-0.3c0.3,0,0.5,0.1,0.6,0.3c0.2,0.2,0.3,0.4,0.3,0.7v11.3
	c0,0.3-0.1,0.5-0.3,0.7C103.1,27.9,102.9,28,102.6,28z M120.1,33.7c-0.1,0-0.3,0-0.4-0.1c-0.5-0.2-0.7-0.6-0.5-1.2l7.8-17.1
	c0.2-0.5,0.6-0.7,1.2-0.4c0.5,0.2,0.7,0.6,0.5,1.1l-7.8,17.1C120.7,33.5,120.4,33.7,120.1,33.7z M122.8,27.6
	c-0.2,0.1-0.5,0.1-0.7,0.1c-0.2-0.1-0.4-0.2-0.5-0.5l-5.4-11.1c-0.1-0.2-0.1-0.5,0-0.7s0.2-0.4,0.5-0.5s0.5-0.1,0.7,0
	s0.4,0.2,0.5,0.5l5.3,11.1c0.1,0.2,0.2,0.5,0.1,0.7S123,27.5,122.8,27.6z"/>
<path class="st0" d="M155.9,19.9c0-1,0.3-1.9,0.8-2.7c0.5-0.8,1.1-1.4,1.8-1.8c0.8-0.4,1.6-0.7,2.5-0.7c0.7,0,1.3,0.1,1.7,0.3
	c0.4,0.2,0.6,0.5,0.5,0.9c-0.1,0.2-0.2,0.4-0.3,0.5s-0.3,0.1-0.6,0.1c-0.2,0-0.4,0-0.7,0c-0.9-0.1-1.7,0-2.4,0.3s-1.2,0.7-1.7,1.2
	c-0.4,0.5-0.6,1.2-0.6,1.9C156.9,19.9,155.9,19.9,155.9,19.9z M156.1,28c-0.3,0-0.5-0.1-0.7-0.2c-0.2-0.2-0.2-0.4-0.2-0.7V15.8
	c0-0.3,0.1-0.5,0.2-0.7c0.2-0.2,0.4-0.2,0.7-0.2s0.5,0.1,0.7,0.2s0.2,0.4,0.2,0.7v11.3c0,0.3-0.1,0.5-0.2,0.7S156.4,28,156.1,28z
	 M171.1,28.1c-1.3,0-2.4-0.3-3.5-0.8c-1-0.6-1.8-1.4-2.4-2.4c-0.6-1-0.8-2.2-0.8-3.5s0.3-2.5,0.8-3.5s1.3-1.8,2.2-2.4s2-0.9,3.3-0.9
	c1.2,0,2.3,0.3,3.2,0.8s1.6,1.3,2.1,2.3s0.7,2.1,0.7,3.3c0,0.3-0.1,0.5-0.2,0.6c-0.2,0.1-0.4,0.2-0.6,0.2h-10.2v-1.5h10.4l-1,0.7
	c0-0.9-0.2-1.8-0.5-2.5s-0.9-1.3-1.5-1.7c-0.6-0.4-1.4-0.6-2.3-0.6c-0.9,0-1.7,0.2-2.4,0.6s-1.2,1-1.6,1.8c-0.4,0.8-0.6,1.6-0.6,2.6
	s0.2,1.8,0.6,2.6c0.4,0.8,1,1.3,1.8,1.8c0.7,0.4,1.6,0.6,2.5,0.6c0.6,0,1.2-0.1,1.7-0.3c0.6-0.2,1.1-0.5,1.4-0.8
	c0.2-0.1,0.4-0.2,0.6-0.2c0.2,0,0.4,0,0.6,0.2c0.2,0.2,0.3,0.4,0.3,0.6c0,0.2-0.1,0.4-0.3,0.6c-0.5,0.4-1.2,0.8-2,1.1
	C172.7,28,171.9,28.1,171.1,28.1z M181.3,28c-0.3,0-0.5-0.1-0.7-0.2c-0.2-0.2-0.2-0.4-0.2-0.7V15.8c0-0.3,0.1-0.5,0.2-0.7
	c0.2-0.2,0.4-0.3,0.7-0.3s0.5,0.1,0.6,0.3c0.2,0.2,0.3,0.4,0.3,0.7v11.3c0,0.3-0.1,0.5-0.3,0.7C181.7,27.9,181.5,28,181.3,28z
	 M181.2,12.4c-0.4,0-0.7-0.1-0.9-0.4c-0.3-0.3-0.4-0.6-0.4-0.9c0-0.4,0.1-0.7,0.4-0.9c0.3-0.2,0.6-0.4,0.9-0.4
	c0.3,0,0.6,0.1,0.9,0.4c0.3,0.2,0.4,0.5,0.4,0.9s-0.1,0.7-0.4,0.9C181.9,12.2,181.6,12.4,181.2,12.4z M192,28
	c-0.8,0-1.6-0.2-2.3-0.6c-0.7-0.4-1.2-0.9-1.6-1.6c-0.4-0.7-0.6-1.5-0.6-2.4V11.6c0-0.3,0.1-0.5,0.2-0.7c0.2-0.2,0.4-0.3,0.7-0.3
	s0.5,0.1,0.7,0.3c0.2,0.2,0.3,0.4,0.3,0.7v11.7c0,0.8,0.2,1.5,0.7,2s1.1,0.8,1.8,0.8h0.6c0.3,0,0.5,0.1,0.6,0.3
	c0.2,0.2,0.2,0.4,0.2,0.7s-0.1,0.5-0.3,0.7s-0.4,0.2-0.7,0.2H192z M186,17c-0.2,0-0.4-0.1-0.6-0.2c-0.2-0.2-0.2-0.4-0.2-0.6
	s0.1-0.4,0.2-0.6c0.2-0.2,0.4-0.2,0.6-0.2h6.1c0.2,0,0.4,0.1,0.6,0.2c0.2,0.1,0.2,0.3,0.2,0.6c0,0.2-0.1,0.4-0.2,0.6
	c-0.2,0.1-0.4,0.2-0.6,0.2H186z M202.3,28.1c-1.2,0-2.3-0.3-3.3-0.9c-1-0.6-1.8-1.4-2.3-2.4c-0.6-1-0.8-2.1-0.8-3.4s0.3-2.4,0.9-3.4
	c0.6-1,1.4-1.8,2.4-2.4s2.1-0.9,3.4-0.9c1.3,0,2.4,0.3,3.4,0.9s1.8,1.4,2.4,2.4c0.6,1,0.9,2.2,0.9,3.4l-0.7,0.6
	c0,1.2-0.3,2.2-0.8,3.1c-0.5,0.9-1.3,1.6-2.2,2.2C204.5,27.9,203.5,28.1,202.3,28.1z M202.5,26.4c0.9,0,1.8-0.2,2.5-0.6
	c0.7-0.4,1.3-1,1.7-1.8s0.6-1.6,0.6-2.6s-0.2-1.8-0.6-2.6c-0.4-0.8-1-1.3-1.7-1.8c-0.7-0.4-1.5-0.7-2.5-0.7c-0.9,0-1.7,0.2-2.5,0.7
	c-0.7,0.4-1.3,1-1.8,1.8c-0.4,0.8-0.6,1.6-0.6,2.6c0,0.9,0.2,1.8,0.6,2.6c0.4,0.8,1,1.3,1.8,1.8C200.8,26.2,201.6,26.4,202.5,26.4z
	 M208.2,28c-0.3,0-0.5-0.1-0.7-0.2c-0.2-0.2-0.3-0.4-0.3-0.7V23l0.5-1.9l1.4,0.4v5.6c0,0.3-0.1,0.5-0.3,0.7
	C208.7,27.9,208.5,28,208.2,28z M217.4,28.1c-0.9,0-1.9-0.2-2.8-0.5c-0.9-0.3-1.7-0.8-2.3-1.4c-0.2-0.2-0.2-0.4-0.2-0.6
	c0-0.2,0.2-0.4,0.4-0.6c0.2-0.2,0.5-0.2,0.7-0.2s0.4,0.1,0.6,0.3c0.4,0.4,0.9,0.8,1.5,1s1.3,0.4,2.1,0.4c1.2,0,2-0.2,2.6-0.6
	c0.5-0.4,0.8-0.9,0.8-1.5c0-0.6-0.3-1-0.8-1.4s-1.4-0.7-2.7-0.9c-1.6-0.3-2.8-0.7-3.6-1.3c-0.8-0.6-1.1-1.4-1.1-2.3
	c0-0.8,0.2-1.5,0.6-2c0.4-0.5,1-1,1.7-1.2s1.5-0.4,2.4-0.4c1.1,0,2,0.2,2.8,0.6s1.4,0.9,1.9,1.5c0.2,0.2,0.2,0.4,0.2,0.6
	s-0.2,0.4-0.4,0.6c-0.2,0.1-0.4,0.2-0.7,0.1c-0.2,0-0.4-0.2-0.6-0.4c-0.4-0.5-0.9-0.8-1.4-1s-1.1-0.3-1.8-0.3
	c-0.9,0-1.6,0.2-2.1,0.6s-0.8,0.8-0.8,1.3c0,0.4,0.1,0.7,0.3,1s0.6,0.5,1,0.7c0.5,0.2,1.2,0.4,2.1,0.5c1.2,0.2,2.1,0.5,2.8,0.9
	s1.2,0.8,1.5,1.3s0.5,1,0.5,1.6c0,0.8-0.2,1.4-0.7,2c-0.4,0.6-1,1-1.8,1.3C219.2,28,218.4,28.1,217.4,28.1z"/>
</svg>
